<mxfile host="app.diagrams.net" modified="2021-08-13T05:42:52.386Z" agent="5.0 (Windows NT 10.0; Win64; x64) AppleWebKit/537.36 (KHTML, like Gecko) Chrome/92.0.4515.131 Safari/537.36" etag="_CRbY0RfU8bqk-EDhYKH" version="14.9.6" type="github">
  <diagram id="R2lEEEUBdFMjLlhIrx00" name="Page-1">
    <mxGraphModel dx="1106" dy="359" grid="1" gridSize="10" guides="1" tooltips="1" connect="1" arrows="1" fold="1" page="1" pageScale="1" pageWidth="850" pageHeight="1100" math="0" shadow="0" extFonts="Permanent Marker^https://fonts.googleapis.com/css?family=Permanent+Marker">
      <root>
        <mxCell id="0" />
        <mxCell id="1" parent="0" />
        <mxCell id="vivi1H7M52JGYI5ezE_u-1" value="Name" style="ellipse;whiteSpace=wrap;html=1;align=center;" parent="1" vertex="1">
          <mxGeometry x="90" y="130" width="100" height="40" as="geometry" />
        </mxCell>
        <mxCell id="vivi1H7M52JGYI5ezE_u-2" value="User" style="whiteSpace=wrap;html=1;align=center;" parent="1" vertex="1">
          <mxGeometry x="230" y="240" width="100" height="40" as="geometry" />
        </mxCell>
        <mxCell id="vivi1H7M52JGYI5ezE_u-4" value="DOB" style="ellipse;whiteSpace=wrap;html=1;align=center;" parent="1" vertex="1">
          <mxGeometry x="170" y="90" width="100" height="40" as="geometry" />
        </mxCell>
        <mxCell id="vivi1H7M52JGYI5ezE_u-5" value="Email" style="ellipse;whiteSpace=wrap;html=1;align=center;" parent="1" vertex="1">
          <mxGeometry x="230" y="50" width="100" height="40" as="geometry" />
        </mxCell>
        <mxCell id="vivi1H7M52JGYI5ezE_u-6" value="Address" style="ellipse;whiteSpace=wrap;html=1;align=center;" parent="1" vertex="1">
          <mxGeometry x="230" y="310" width="100" height="43" as="geometry" />
        </mxCell>
        <mxCell id="vivi1H7M52JGYI5ezE_u-7" value="City" style="ellipse;whiteSpace=wrap;html=1;align=center;" parent="1" vertex="1">
          <mxGeometry x="170" y="473" width="100" height="43" as="geometry" />
        </mxCell>
        <mxCell id="vivi1H7M52JGYI5ezE_u-8" value="&lt;span id=&quot;docs-internal-guid-7f4886b5-7fff-5111-8bc1-76f98fca6006&quot;&gt;&lt;span style=&quot;font-size: 11pt ; font-family: &amp;#34;calibri&amp;#34; , sans-serif ; background-color: transparent ; vertical-align: baseline&quot;&gt;Address_Line_2&lt;/span&gt;&lt;/span&gt;" style="ellipse;whiteSpace=wrap;html=1;align=center;" parent="1" vertex="1">
          <mxGeometry x="100" y="430" width="110" height="43" as="geometry" />
        </mxCell>
        <mxCell id="vivi1H7M52JGYI5ezE_u-9" value="&lt;span id=&quot;docs-internal-guid-7f4886b5-7fff-5111-8bc1-76f98fca6006&quot;&gt;&lt;span style=&quot;font-size: 11pt ; font-family: &amp;#34;calibri&amp;#34; , sans-serif ; background-color: transparent ; vertical-align: baseline&quot;&gt;Address_Line_1 &lt;/span&gt;&lt;/span&gt;" style="ellipse;whiteSpace=wrap;html=1;align=center;" parent="1" vertex="1">
          <mxGeometry x="70" y="370" width="110" height="43" as="geometry" />
        </mxCell>
        <mxCell id="vivi1H7M52JGYI5ezE_u-10" value="Country" style="ellipse;whiteSpace=wrap;html=1;align=center;" parent="1" vertex="1">
          <mxGeometry x="340" y="430" width="100" height="43" as="geometry" />
        </mxCell>
        <mxCell id="vivi1H7M52JGYI5ezE_u-11" value="State" style="ellipse;whiteSpace=wrap;html=1;align=center;" parent="1" vertex="1">
          <mxGeometry x="280" y="473" width="100" height="43" as="geometry" />
        </mxCell>
        <mxCell id="vivi1H7M52JGYI5ezE_u-12" value="Age" style="ellipse;whiteSpace=wrap;html=1;align=center;dashed=1;" parent="1" vertex="1">
          <mxGeometry x="380" y="130" width="100" height="40" as="geometry" />
        </mxCell>
        <mxCell id="vivi1H7M52JGYI5ezE_u-13" value="Pin_Code" style="ellipse;whiteSpace=wrap;html=1;align=center;" parent="1" vertex="1">
          <mxGeometry x="390" y="370" width="100" height="43" as="geometry" />
        </mxCell>
        <mxCell id="vivi1H7M52JGYI5ezE_u-19" value="" style="endArrow=none;html=1;exitX=0.5;exitY=1;exitDx=0;exitDy=0;entryX=0.5;entryY=0;entryDx=0;entryDy=0;" parent="1" source="vivi1H7M52JGYI5ezE_u-6" target="vivi1H7M52JGYI5ezE_u-10" edge="1">
          <mxGeometry width="50" height="50" relative="1" as="geometry">
            <mxPoint x="330" y="370" as="sourcePoint" />
            <mxPoint x="340" y="483" as="targetPoint" />
          </mxGeometry>
        </mxCell>
        <mxCell id="vivi1H7M52JGYI5ezE_u-20" value="" style="endArrow=none;html=1;exitX=0.5;exitY=1;exitDx=0;exitDy=0;entryX=0;entryY=0.5;entryDx=0;entryDy=0;" parent="1" source="vivi1H7M52JGYI5ezE_u-6" target="vivi1H7M52JGYI5ezE_u-13" edge="1">
          <mxGeometry width="50" height="50" relative="1" as="geometry">
            <mxPoint x="330" y="370" as="sourcePoint" />
            <mxPoint x="340" y="483" as="targetPoint" />
          </mxGeometry>
        </mxCell>
        <mxCell id="vivi1H7M52JGYI5ezE_u-22" value="" style="endArrow=none;html=1;entryX=0.5;entryY=1;entryDx=0;entryDy=0;exitX=0.5;exitY=0;exitDx=0;exitDy=0;" parent="1" source="vivi1H7M52JGYI5ezE_u-6" target="vivi1H7M52JGYI5ezE_u-2" edge="1">
          <mxGeometry width="50" height="50" relative="1" as="geometry">
            <mxPoint x="400" y="360" as="sourcePoint" />
            <mxPoint x="450" y="310" as="targetPoint" />
          </mxGeometry>
        </mxCell>
        <mxCell id="vivi1H7M52JGYI5ezE_u-24" value="" style="endArrow=none;html=1;exitX=0.5;exitY=1;exitDx=0;exitDy=0;entryX=0.5;entryY=0;entryDx=0;entryDy=0;" parent="1" source="vivi1H7M52JGYI5ezE_u-6" target="vivi1H7M52JGYI5ezE_u-11" edge="1">
          <mxGeometry width="50" height="50" relative="1" as="geometry">
            <mxPoint x="330" y="370" as="sourcePoint" />
            <mxPoint x="340" y="483" as="targetPoint" />
          </mxGeometry>
        </mxCell>
        <mxCell id="vivi1H7M52JGYI5ezE_u-25" value="" style="endArrow=none;html=1;exitX=0.5;exitY=1;exitDx=0;exitDy=0;entryX=0.5;entryY=0;entryDx=0;entryDy=0;" parent="1" source="vivi1H7M52JGYI5ezE_u-6" target="vivi1H7M52JGYI5ezE_u-7" edge="1">
          <mxGeometry width="50" height="50" relative="1" as="geometry">
            <mxPoint x="330" y="370" as="sourcePoint" />
            <mxPoint x="340" y="483" as="targetPoint" />
          </mxGeometry>
        </mxCell>
        <mxCell id="vivi1H7M52JGYI5ezE_u-26" value="" style="endArrow=none;html=1;exitX=0.5;exitY=1;exitDx=0;exitDy=0;entryX=0.5;entryY=0;entryDx=0;entryDy=0;" parent="1" source="vivi1H7M52JGYI5ezE_u-6" target="vivi1H7M52JGYI5ezE_u-8" edge="1">
          <mxGeometry width="50" height="50" relative="1" as="geometry">
            <mxPoint x="330" y="370" as="sourcePoint" />
            <mxPoint x="340" y="483" as="targetPoint" />
          </mxGeometry>
        </mxCell>
        <mxCell id="vivi1H7M52JGYI5ezE_u-27" value="" style="endArrow=none;html=1;exitX=0.5;exitY=1;exitDx=0;exitDy=0;entryX=1;entryY=0.5;entryDx=0;entryDy=0;" parent="1" source="vivi1H7M52JGYI5ezE_u-6" target="vivi1H7M52JGYI5ezE_u-9" edge="1">
          <mxGeometry width="50" height="50" relative="1" as="geometry">
            <mxPoint x="330" y="370" as="sourcePoint" />
            <mxPoint x="340" y="483" as="targetPoint" />
          </mxGeometry>
        </mxCell>
        <mxCell id="vivi1H7M52JGYI5ezE_u-28" value="Phone_NO" style="ellipse;shape=doubleEllipse;margin=3;whiteSpace=wrap;html=1;align=center;" parent="1" vertex="1">
          <mxGeometry x="310" y="90" width="100" height="40" as="geometry" />
        </mxCell>
        <mxCell id="vivi1H7M52JGYI5ezE_u-29" value="" style="endArrow=none;html=1;entryX=0.5;entryY=1;entryDx=0;entryDy=0;exitX=0.5;exitY=0;exitDx=0;exitDy=0;" parent="1" source="vivi1H7M52JGYI5ezE_u-2" target="vivi1H7M52JGYI5ezE_u-5" edge="1">
          <mxGeometry width="50" height="50" relative="1" as="geometry">
            <mxPoint x="290" y="320" as="sourcePoint" />
            <mxPoint x="290" y="290" as="targetPoint" />
          </mxGeometry>
        </mxCell>
        <mxCell id="vivi1H7M52JGYI5ezE_u-30" value="" style="endArrow=none;html=1;exitX=0.5;exitY=0;exitDx=0;exitDy=0;entryX=0.5;entryY=1;entryDx=0;entryDy=0;" parent="1" source="vivi1H7M52JGYI5ezE_u-2" target="vivi1H7M52JGYI5ezE_u-4" edge="1">
          <mxGeometry width="50" height="50" relative="1" as="geometry">
            <mxPoint x="280" y="240" as="sourcePoint" />
            <mxPoint x="250" y="110" as="targetPoint" />
          </mxGeometry>
        </mxCell>
        <mxCell id="vivi1H7M52JGYI5ezE_u-31" value="" style="endArrow=none;html=1;exitX=0.5;exitY=0;exitDx=0;exitDy=0;entryX=1;entryY=0.5;entryDx=0;entryDy=0;" parent="1" source="vivi1H7M52JGYI5ezE_u-2" target="vivi1H7M52JGYI5ezE_u-1" edge="1">
          <mxGeometry width="50" height="50" relative="1" as="geometry">
            <mxPoint x="280" y="240" as="sourcePoint" />
            <mxPoint x="250" y="110" as="targetPoint" />
          </mxGeometry>
        </mxCell>
        <mxCell id="vivi1H7M52JGYI5ezE_u-34" value="" style="endArrow=none;html=1;entryX=0.5;entryY=1;entryDx=0;entryDy=0;exitX=0.5;exitY=0;exitDx=0;exitDy=0;" parent="1" source="vivi1H7M52JGYI5ezE_u-2" target="vivi1H7M52JGYI5ezE_u-28" edge="1">
          <mxGeometry width="50" height="50" relative="1" as="geometry">
            <mxPoint x="290" y="320" as="sourcePoint" />
            <mxPoint x="290" y="290" as="targetPoint" />
          </mxGeometry>
        </mxCell>
        <mxCell id="vivi1H7M52JGYI5ezE_u-35" value="" style="endArrow=none;html=1;entryX=0;entryY=0.5;entryDx=0;entryDy=0;exitX=0.5;exitY=0;exitDx=0;exitDy=0;" parent="1" source="vivi1H7M52JGYI5ezE_u-2" target="vivi1H7M52JGYI5ezE_u-12" edge="1">
          <mxGeometry width="50" height="50" relative="1" as="geometry">
            <mxPoint x="290" y="320" as="sourcePoint" />
            <mxPoint x="290" y="290" as="targetPoint" />
          </mxGeometry>
        </mxCell>
        <mxCell id="vivi1H7M52JGYI5ezE_u-37" value="Appointment" style="whiteSpace=wrap;html=1;align=center;" parent="1" vertex="1">
          <mxGeometry x="490" y="240" width="100" height="40" as="geometry" />
        </mxCell>
        <mxCell id="vivi1H7M52JGYI5ezE_u-38" value="Sr. No." style="ellipse;whiteSpace=wrap;html=1;align=center;fontStyle=4;" parent="1" vertex="1">
          <mxGeometry x="60" y="190" width="100" height="40" as="geometry" />
        </mxCell>
        <mxCell id="vivi1H7M52JGYI5ezE_u-39" value="" style="endArrow=none;html=1;exitX=0.5;exitY=0;exitDx=0;exitDy=0;entryX=1;entryY=0.5;entryDx=0;entryDy=0;" parent="1" source="vivi1H7M52JGYI5ezE_u-2" target="vivi1H7M52JGYI5ezE_u-38" edge="1">
          <mxGeometry width="50" height="50" relative="1" as="geometry">
            <mxPoint x="280" y="240" as="sourcePoint" />
            <mxPoint x="250" y="110" as="targetPoint" />
          </mxGeometry>
        </mxCell>
        <mxCell id="vivi1H7M52JGYI5ezE_u-40" value="Sr. No." style="ellipse;whiteSpace=wrap;html=1;align=center;fontStyle=4;" parent="1" vertex="1">
          <mxGeometry x="490" y="130" width="100" height="40" as="geometry" />
        </mxCell>
        <mxCell id="vivi1H7M52JGYI5ezE_u-41" value="" style="endArrow=none;html=1;entryX=0.5;entryY=1;entryDx=0;entryDy=0;exitX=0.5;exitY=0;exitDx=0;exitDy=0;" parent="1" source="vivi1H7M52JGYI5ezE_u-37" target="vivi1H7M52JGYI5ezE_u-40" edge="1">
          <mxGeometry width="50" height="50" relative="1" as="geometry">
            <mxPoint x="290" y="250" as="sourcePoint" />
            <mxPoint x="390" y="160" as="targetPoint" />
          </mxGeometry>
        </mxCell>
        <mxCell id="vivi1H7M52JGYI5ezE_u-42" value="Trainer_Prefrence" style="ellipse;whiteSpace=wrap;html=1;align=center;" parent="1" vertex="1">
          <mxGeometry x="485" y="450" width="110" height="40" as="geometry" />
        </mxCell>
        <mxCell id="vivi1H7M52JGYI5ezE_u-44" value="" style="endArrow=none;html=1;entryX=0.5;entryY=0;entryDx=0;entryDy=0;exitX=0.5;exitY=1;exitDx=0;exitDy=0;" parent="1" source="vivi1H7M52JGYI5ezE_u-37" target="vivi1H7M52JGYI5ezE_u-42" edge="1">
          <mxGeometry width="50" height="50" relative="1" as="geometry">
            <mxPoint x="290" y="250" as="sourcePoint" />
            <mxPoint x="390" y="160" as="targetPoint" />
          </mxGeometry>
        </mxCell>
        <mxCell id="vivi1H7M52JGYI5ezE_u-46" value="&lt;span id=&quot;docs-internal-guid-bdcaefaa-7fff-0475-c1e9-c0f9a5e005fe&quot;&gt;&lt;span style=&quot;font-size: 11pt ; font-family: &amp;#34;calibri&amp;#34; , sans-serif ; background-color: transparent ; vertical-align: baseline&quot;&gt;Physiotherapist requirement&amp;nbsp;&lt;/span&gt;&lt;/span&gt;" style="ellipse;whiteSpace=wrap;html=1;align=center;" parent="1" vertex="1">
          <mxGeometry x="570" y="390" width="140" height="50" as="geometry" />
        </mxCell>
        <mxCell id="vivi1H7M52JGYI5ezE_u-49" value="" style="endArrow=none;html=1;entryX=0.5;entryY=0;entryDx=0;entryDy=0;exitX=0.5;exitY=1;exitDx=0;exitDy=0;" parent="1" source="vivi1H7M52JGYI5ezE_u-37" target="vivi1H7M52JGYI5ezE_u-46" edge="1">
          <mxGeometry width="50" height="50" relative="1" as="geometry">
            <mxPoint x="290" y="250" as="sourcePoint" />
            <mxPoint x="390" y="160" as="targetPoint" />
          </mxGeometry>
        </mxCell>
        <mxCell id="vivi1H7M52JGYI5ezE_u-50" value="Package" style="ellipse;whiteSpace=wrap;html=1;align=center;" parent="1" vertex="1">
          <mxGeometry x="580" y="90" width="100" height="40" as="geometry" />
        </mxCell>
        <mxCell id="vivi1H7M52JGYI5ezE_u-51" value="" style="endArrow=none;html=1;entryX=0.5;entryY=1;entryDx=0;entryDy=0;exitX=0.5;exitY=0;exitDx=0;exitDy=0;" parent="1" source="vivi1H7M52JGYI5ezE_u-37" target="vivi1H7M52JGYI5ezE_u-50" edge="1">
          <mxGeometry width="50" height="50" relative="1" as="geometry">
            <mxPoint x="290" y="250" as="sourcePoint" />
            <mxPoint x="390" y="160" as="targetPoint" />
          </mxGeometry>
        </mxCell>
        <mxCell id="vivi1H7M52JGYI5ezE_u-52" value="Total_Amount" style="ellipse;whiteSpace=wrap;html=1;align=center;dashed=1;" parent="1" vertex="1">
          <mxGeometry x="640" y="350" width="100" height="40" as="geometry" />
        </mxCell>
        <mxCell id="vivi1H7M52JGYI5ezE_u-53" value="" style="endArrow=none;html=1;entryX=0.5;entryY=0;entryDx=0;entryDy=0;exitX=0.5;exitY=1;exitDx=0;exitDy=0;" parent="1" source="vivi1H7M52JGYI5ezE_u-37" target="vivi1H7M52JGYI5ezE_u-52" edge="1">
          <mxGeometry width="50" height="50" relative="1" as="geometry">
            <mxPoint x="290" y="250" as="sourcePoint" />
            <mxPoint x="390" y="160" as="targetPoint" />
          </mxGeometry>
        </mxCell>
        <mxCell id="vivi1H7M52JGYI5ezE_u-54" value="Week" style="ellipse;whiteSpace=wrap;html=1;align=center;" parent="1" vertex="1">
          <mxGeometry x="620" y="140" width="100" height="40" as="geometry" />
        </mxCell>
        <mxCell id="vivi1H7M52JGYI5ezE_u-55" value="" style="endArrow=none;html=1;entryX=0.5;entryY=1;entryDx=0;entryDy=0;exitX=0.5;exitY=0;exitDx=0;exitDy=0;" parent="1" source="vivi1H7M52JGYI5ezE_u-37" target="vivi1H7M52JGYI5ezE_u-54" edge="1">
          <mxGeometry width="50" height="50" relative="1" as="geometry">
            <mxPoint x="290" y="250" as="sourcePoint" />
            <mxPoint x="390" y="160" as="targetPoint" />
          </mxGeometry>
        </mxCell>
        <mxCell id="3ExMEhBkqRux_Nv6LGul-3" value="Has" style="shape=rhombus;perimeter=rhombusPerimeter;whiteSpace=wrap;html=1;align=center;" vertex="1" parent="1">
          <mxGeometry x="360" y="240" width="90" height="40" as="geometry" />
        </mxCell>
        <mxCell id="3ExMEhBkqRux_Nv6LGul-4" value="" style="endArrow=none;html=1;rounded=0;exitX=1;exitY=0.5;exitDx=0;exitDy=0;entryX=0;entryY=0.5;entryDx=0;entryDy=0;" edge="1" parent="1" source="vivi1H7M52JGYI5ezE_u-2" target="3ExMEhBkqRux_Nv6LGul-3">
          <mxGeometry relative="1" as="geometry">
            <mxPoint x="340" y="270" as="sourcePoint" />
            <mxPoint x="380" y="270" as="targetPoint" />
          </mxGeometry>
        </mxCell>
        <mxCell id="3ExMEhBkqRux_Nv6LGul-5" value="1" style="resizable=0;html=1;align=right;verticalAlign=bottom;" connectable="0" vertex="1" parent="3ExMEhBkqRux_Nv6LGul-4">
          <mxGeometry x="1" relative="1" as="geometry">
            <mxPoint x="-15" as="offset" />
          </mxGeometry>
        </mxCell>
        <mxCell id="3ExMEhBkqRux_Nv6LGul-6" value="" style="endArrow=none;html=1;rounded=0;exitX=1;exitY=0.5;exitDx=0;exitDy=0;entryX=0;entryY=0.5;entryDx=0;entryDy=0;" edge="1" parent="1" source="3ExMEhBkqRux_Nv6LGul-3" target="vivi1H7M52JGYI5ezE_u-37">
          <mxGeometry relative="1" as="geometry">
            <mxPoint x="350" y="370" as="sourcePoint" />
            <mxPoint x="500" y="270" as="targetPoint" />
          </mxGeometry>
        </mxCell>
        <mxCell id="3ExMEhBkqRux_Nv6LGul-7" value="N" style="resizable=0;html=1;align=right;verticalAlign=bottom;" connectable="0" vertex="1" parent="3ExMEhBkqRux_Nv6LGul-6">
          <mxGeometry x="1" relative="1" as="geometry">
            <mxPoint x="-10" as="offset" />
          </mxGeometry>
        </mxCell>
      </root>
    </mxGraphModel>
  </diagram>
</mxfile>
